# xmcd CD database file
#
# Track frame offsets:
#	150
#	19383
#	35301
#	56999
#	70817
#	85691
#	99196
#	114159
#	126411
#	147713
#	166125
#	184041
#	203259
#	228016
#	242092
#
# Disc length: 3489 seconds
#
# Revision: 1
# Processed by: cddbd v1.4PL0 Copyright (c) Steve Scherf et al.
# Submitted via: CDex 1.50Beta7
#
DISCID=c00d9f0f
DTITLE=The Ray Hamilton Orchestra - The Best of Instrumental Moods
DYEAR=1999
DGENRE=New Age
TTITLE0=Sentimental/Kenny G.,Afanasieff
TTITLE1=Three Times a Lady/Ritchie
TTITLE2=Waiting for You/Kenny G.
TTITLE3=The Days of Wine and Roses/Mercer,Mancini
TTITLE4=The Wedding Song/Kenny G.,Afanasieff
TTITLE5=Do You Know Where You're Going To?/Masser,Goffin
TTITLE6=Loving You/Kenny G.,Afanasieff
TTITLE7=La Vie En Rose/Piaf,Louigny
TTITLE8=That Somebody Was You/Kenny G.,Afanasieff,Edmonds
TTITLE9=You Send Me/Cooke
TTITLE10=Don't Make Me Wait For Love/Glass,Walden,Afanasieff
TTITLE11=We Don't Need Another Hero/Britten,Lyle
TTITLE12=Always/Kenny G.
TTITLE13=It's Only Love/Adams,Vallance
TTITLE14=Alfie/Bacharach,David
EXTD=YEAR: 1999
EXTT0=
EXTT1=
EXTT2=
EXTT3=
EXTT4=
EXTT5=
EXTT6=
EXTT7=
EXTT8=
EXTT9=
EXTT10=
EXTT11=
EXTT12=
EXTT13=
EXTT14=
PLAYORDER=
